<svg xmlns="http://www.w3.org/2000/svg" viewBox="0 0 640 360">
  <defs>
    <linearGradient id="barG2" x1="0" y1="1" x2="0" y2="0">
      <stop offset="0%" stop-color="#1a3a8a"/>
      <stop offset="25%" stop-color="#00aaff"/>
      <stop offset="50%" stop-color="#00ddaa"/>
      <stop offset="75%" stop-color="#ccee00"/>
      <stop offset="100%" stop-color="#ff3322"/>
    </linearGradient>
  </defs>

  <!-- VGA frame -->
  <rect width="640" height="360" fill="#040410" rx="4"/>

  <!-- Border zone -->
  <rect x="0" y="0" width="640" height="15" fill="#020208"/>
  <text x="320" y="10" fill="#1a2838" font-family="monospace" font-size="7" text-anchor="middle">y=0..19  top border</text>

  <!-- Bar area -->
  <rect x="0" y="15" width="640" height="225" fill="#030410"/>

  <!-- Grid lines -->
  <line x1="18" y1="71" x2="640" y2="71" stroke="#0c2430" stroke-width="0.5"/>
  <line x1="18" y1="127" x2="640" y2="127" stroke="#0c2430" stroke-width="0.5"/>
  <line x1="18" y1="183" x2="640" y2="183" stroke="#0c2430" stroke-width="0.5"/>

  <!-- Y-axis labels -->
  <text x="14" y="25" fill="#3a6090" font-family="monospace" font-size="6">dB</text>
  <text x="14" y="74" fill="#2a4a70" font-family="monospace" font-size="5">-20</text>
  <text x="14" y="130" fill="#2a4a70" font-family="monospace" font-size="5">-40</text>
  <text x="14" y="186" fill="#2a4a70" font-family="monospace" font-size="5">-60</text>
  <text x="14" y="225" fill="#2a4a70" font-family="monospace" font-size="5">-80</text>

  <!-- Spectrum bars -->
  <rect x="22" y="218" width="3" height="22" fill="url(#barG2)"/>
  <rect x="27" y="210" width="3" height="30" fill="url(#barG2)"/>
  <rect x="32" y="195" width="3" height="45" fill="url(#barG2)"/>
  <rect x="37" y="175" width="3" height="65" fill="url(#barG2)"/>
  <rect x="42" y="148" width="3" height="92" fill="url(#barG2)"/>
  <rect x="47" y="120" width="3" height="120" fill="url(#barG2)"/>
  <rect x="52" y="90" width="3" height="150" fill="url(#barG2)"/>
  <rect x="57" y="60" width="3" height="180" fill="url(#barG2)"/>
  <rect x="62" y="40" width="3" height="200" fill="url(#barG2)"/>
  <rect x="67" y="28" width="3" height="212" fill="url(#barG2)"/>
  <rect x="72" y="35" width="3" height="205" fill="url(#barG2)"/>
  <rect x="77" y="50" width="3" height="190" fill="url(#barG2)"/>
  <rect x="82" y="68" width="3" height="172" fill="url(#barG2)"/>
  <rect x="87" y="85" width="3" height="155" fill="url(#barG2)"/>
  <rect x="92" y="100" width="3" height="140" fill="url(#barG2)"/>
  <rect x="97" y="112" width="3" height="128" fill="url(#barG2)"/>
  <rect x="102" y="88" width="3" height="152" fill="url(#barG2)"/>
  <rect x="107" y="68" width="3" height="172" fill="url(#barG2)"/>
  <rect x="112" y="55" width="3" height="185" fill="url(#barG2)"/>
  <rect x="117" y="48" width="3" height="192" fill="url(#barG2)"/>
  <rect x="122" y="55" width="3" height="185" fill="url(#barG2)"/>
  <rect x="127" y="68" width="3" height="172" fill="url(#barG2)"/>
  <rect x="132" y="85" width="3" height="155" fill="url(#barG2)"/>
  <rect x="137" y="100" width="3" height="140" fill="url(#barG2)"/>
  <rect x="142" y="118" width="3" height="122" fill="url(#barG2)"/>
  <rect x="147" y="132" width="3" height="108" fill="url(#barG2)"/>
  <rect x="152" y="125" width="3" height="115" fill="url(#barG2)"/>
  <rect x="157" y="118" width="3" height="122" fill="url(#barG2)"/>
  <rect x="162" y="125" width="3" height="115" fill="url(#barG2)"/>
  <rect x="167" y="135" width="3" height="105" fill="url(#barG2)"/>
  <rect x="172" y="142" width="3" height="98" fill="url(#barG2)"/>
  <rect x="177" y="150" width="3" height="90" fill="url(#barG2)"/>
  <rect x="182" y="158" width="3" height="82" fill="url(#barG2)"/>
  <rect x="187" y="165" width="3" height="75" fill="url(#barG2)"/>
  <rect x="192" y="170" width="3" height="70" fill="url(#barG2)"/>
  <rect x="197" y="175" width="3" height="65" fill="url(#barG2)"/>
  <rect x="202" y="180" width="3" height="60" fill="url(#barG2)"/>
  <rect x="207" y="185" width="3" height="55" fill="url(#barG2)"/>
  <rect x="212" y="190" width="3" height="50" fill="url(#barG2)"/>
  <rect x="217" y="195" width="3" height="45" fill="url(#barG2)"/>
  <rect x="222" y="198" width="3" height="42" fill="url(#barG2)"/>
  <rect x="227" y="202" width="3" height="38" fill="url(#barG2)"/>
  <rect x="232" y="205" width="3" height="35" fill="url(#barG2)"/>
  <rect x="237" y="208" width="3" height="32" fill="url(#barG2)"/>
  <rect x="242" y="210" width="3" height="30" fill="url(#barG2)"/>
  <rect x="247" y="213" width="3" height="27" fill="url(#barG2)"/>
  <rect x="252" y="216" width="3" height="24" fill="url(#barG2)"/>

  <!-- Peak dots -->
  <rect x="62" y="35" width="3" height="2" fill="#aaeeff"/>
  <rect x="67" y="22" width="3" height="2" fill="#aaeeff"/>
  <rect x="72" y="29" width="3" height="2" fill="#aaeeff"/>
  <rect x="112" y="48" width="3" height="2" fill="#aaeeff"/>
  <rect x="117" y="40" width="3" height="2" fill="#aaeeff"/>

  <!-- Divider -->
  <rect x="0" y="242" width="640" height="8" fill="#081020"/>
  <line x1="0" y1="242" x2="640" y2="242" stroke="#2a55a0" stroke-width="0.5"/>
  <line x1="0" y1="250" x2="640" y2="250" stroke="#2a55a0" stroke-width="0.5"/>

  <!-- X-axis freq labels -->
  <text x="22" y="248" fill="#2a5580" font-family="monospace" font-size="5">0</text>
  <text x="95" y="248" fill="#2a5580" font-family="monospace" font-size="5">5k</text>
  <text x="175" y="248" fill="#2a5580" font-family="monospace" font-size="5">10k</text>
  <text x="260" y="248" fill="#2a5580" font-family="monospace" font-size="5">15k</text>
  <text x="340" y="248" fill="#2a5580" font-family="monospace" font-size="5">20k</text>
  <text x="590" y="248" fill="#1a3560" font-family="monospace" font-size="5">kHz</text>

  <!-- Waterfall -->
  <rect x="0" y="252" width="640" height="90" fill="#000818"/>
  <rect x="0" y="252" width="640" height="4" fill="#114488" opacity="0.8"/>
  <rect x="0" y="256" width="640" height="4" fill="#0a3366" opacity="0.6"/>
  <rect x="0" y="260" width="640" height="4" fill="#083050" opacity="0.5"/>
  <rect x="0" y="264" width="640" height="4" fill="#062840" opacity="0.4"/>
  <rect x="0" y="268" width="640" height="4" fill="#041e30" opacity="0.3"/>
  <!-- Hotspots -->
  <rect x="45" y="252" width="60" height="4" fill="#ffcc00" opacity="0.7"/>
  <rect x="45" y="256" width="50" height="4" fill="#ff8800" opacity="0.5"/>
  <rect x="45" y="260" width="40" height="4" fill="#cc4400" opacity="0.35"/>
  <rect x="100" y="252" width="30" height="4" fill="#44dd88" opacity="0.5"/>
  <rect x="100" y="256" width="22" height="4" fill="#228866" opacity="0.35"/>

  <!-- Bottom border -->
  <rect x="0" y="345" width="640" height="15" fill="#020208"/>
  <text x="320" y="355" fill="#1a2838" font-family="monospace" font-size="7" text-anchor="middle">640 x 480 @ 60 Hz  //  25 MHz pixel clock  //  ADV7123 DAC</text>

  <!-- Annotation lines -->
  <!-- Bar area bracket -->
  <line x1="628" y1="15" x2="635" y2="15" stroke="#1a3050" stroke-width="0.5"/>
  <line x1="635" y1="15" x2="635" y2="240" stroke="#1a3050" stroke-width="0.5"/>
  <line x1="628" y1="240" x2="635" y2="240" stroke="#1a3050" stroke-width="0.5"/>
  <text x="632" y="132" fill="#2a4a70" font-family="monospace" font-size="6" text-anchor="end" transform="rotate(-90,632,132)">320 px  bar graph</text>

  <!-- Waterfall bracket -->
  <line x1="628" y1="252" x2="635" y2="252" stroke="#1a3050" stroke-width="0.5"/>
  <line x1="635" y1="252" x2="635" y2="342" stroke="#1a3050" stroke-width="0.5"/>
  <line x1="628" y1="342" x2="635" y2="342" stroke="#1a3050" stroke-width="0.5"/>
  <text x="632" y="300" fill="#2a4a70" font-family="monospace" font-size="6" text-anchor="end" transform="rotate(-90,632,300)">128 px  waterfall</text>
</svg>
